HIERARCHY
ROOT simHips
{
  OFFSET -1.65124 97.5425 47.1461
  CHANNELS 6 Xposition Yposition Zposition Zrotation Xrotation Yrotation
  JOINT simSpine
  {
    OFFSET -0.000355721 21.3001 -0.016921
    CHANNELS 3 Zrotation Xrotation Yrotation
    JOINT simLeftArm
    {
      OFFSET 13.5181 21.3012 0
      CHANNELS 3 Zrotation Xrotation Yrotation
      JOINT simLeftForeArm
      {
        OFFSET 24.5783 0 0
        CHANNELS 3 Zrotation Xrotation Yrotation
        JOINT simLeftHand
        {
          OFFSET 24.5783 0 0
          CHANNELS 3 Zrotation Xrotation Yrotation
          End Site
          {
            OFFSET 7.32568 1.52588e-005 0.0169305
          }
        }
      }
    }
    JOINT simHead
    {
      OFFSET 0 27.4458 -0.00489235
      CHANNELS 3 Zrotation Xrotation Yrotation
      End Site
      {
        OFFSET 0 0 0
      }
    }
    JOINT simRightArm
    {
      OFFSET -13.5174 21.3012 0
      CHANNELS 3 Zrotation Xrotation Yrotation
      JOINT simRightForeArm
      {
        OFFSET -24.5783 0 0
        CHANNELS 3 Zrotation Xrotation Yrotation
        JOINT simRightHand
        {
          OFFSET -24.5783 0 0
          CHANNELS 3 Zrotation Xrotation Yrotation
          End Site
          {
            OFFSET -7.32568 1.52588e-005 0.0169305
          }
        }
      }
    }
  }
  JOINT simRightUpLeg
  {
    OFFSET -8.44614 -9.41038 0.835684
    CHANNELS 3 Zrotation Xrotation Yrotation
    JOINT simRightLeg
    {
      OFFSET 0 -40.9639 0
      CHANNELS 3 Zrotation Xrotation Yrotation
      JOINT simRightFoot
      {
        OFFSET 0 -40.9639 0
        CHANNELS 3 Zrotation Xrotation Yrotation
        End Site
        {
          OFFSET 0.50614 -9.67405 14.6709
        }
      }
    }
  }
  JOINT simLeftUpLeg
  {
    OFFSET 8.44614 -9.41038 0.835684
    CHANNELS 3 Zrotation Xrotation Yrotation
    JOINT simLeftLeg
    {
      OFFSET 0 -40.9639 0
      CHANNELS 3 Zrotation Xrotation Yrotation
      JOINT simLeftFoot
      {
        OFFSET 0 -40.9639 0
        CHANNELS 3 Zrotation Xrotation Yrotation
        End Site
        {
          OFFSET -0.50614 -9.67405 14.6709
        }
      }
    }
  }
}
MOTION
Frames:	9
Frame Time:	0.0333333
-0.799203 97.6187 46.7679 -8.49774 7.77457 -0.972484 6.21915 -4.01506 5.19153 -59.991 42.5902 -32.4209 27.6055 -28.6268 -65.0616 0.00375364 -2.63415 0.370478 5.86896 5.69719 -5.05773 17.0541 42.884 72.8574 -28.302 -32.1909 70.573 -0.19939 -11.4147 -1.63875 6.61205 -0.663221 23.6472 0.0046512 1.432 0.0680298 -5.95757 -10.5344 -24.9875 1.93057 -3.25229 -40.5512 0.00496439 18.2523 0.638787 11.2398 -19.7759 49.2393 
-0.819195 97.5769 46.9143 -7.82623 7.94423 -1.55044 5.16306 -4.71905 5.7523 -59.9004 42.5228 -32.2907 27.6064 -28.6304 -65.067 0.00290146 -2.56741 0.361078 6.16916 5.55297 -4.82264 4.99454 49.5379 82.4553 -25.6451 -22.5832 54.5093 -1.10624 -29.4151 -4.5062 5.91704 -0.742674 23.9021 0.00470415 1.38205 0.0682927 -5.89785 -10.4537 -24.8731 1.05533 -3.06944 -41.097 -0.00402206 18.393 0.69756 12.2273 -20.3649 50.4476 
-0.803697 97.6032 46.9819 -7.61223 8.17034 -1.42115 4.5484 -4.72037 5.79588 -59.4435 42.7397 -32.4168 27.6136 -28.6632 -65.1201 0.00302462 -2.57724 0.36244 6.04247 4.04454 -4.98786 2.46977 49.4616 83.4626 -26.2618 -24.1892 58.1125 -1.21617 -29.6257 -4.58494 5.66642 -0.957953 24.1093 0.00473756 1.34885 0.0685545 -6.01104 -10.544 -25.1884 0.941135 -3.47119 -40.6592 0.0221306 18.3427 0.66798 11.9369 -20.1805 49.7849 
-0.769923 97.651 46.9982 -7.88387 8.27854 -1.19748 4.9908 -4.74034 5.14131 -60.257 42.593 -31.5668 27.5394 -28.343 -64.6078 0.0094317 -3.04166 0.427884 5.52353 5.47577 -4.09993 10.0758 41.6963 78.5289 -28.21 -31.8318 69.8407 -0.950706 -26.5082 -4.02108 5.91029 -1.00122 24.297 0.00479368 1.29704 0.0688127 -6.12437 -10.6411 -25.4825 1.1338 -3.52898 -41.1479 0.0124438 18.339 0.679909 12.1301 -20.2594 50.1098 
-0.753629 97.7151 47.0079 -8.1022 8.21858 -1.07836 5.0449 -4.60193 5.12303 -59.8797 43.028 -32.0214 27.5439 -28.3624 -64.6412 0.00681938 -2.86148 0.402476 5.88526 6.43378 -3.51569 19.3612 33.0702 74.6563 -28.3596 -38.4263 80.8778 -0.602147 -21.5787 -3.18428 6.10011 -0.866227 24.1572 0.00489168 1.21098 0.0690656 -6.09504 -10.6254 -25.3718 1.41627 -3.56019 -40.8473 0.00688239 18.3125 0.654892 11.6565 -19.9674 49.6533 
-0.723952 97.7631 47.093 -8.3225 8.05492 -0.493891 4.92453 -4.19604 5.05672 -59.474 43.3548 -32.5665 27.6102 -28.6485 -65.0949 0.00764234 -2.91942 0.410653 6.04414 6.09611 -3.81053 19.1717 33.9359 74.5916 -28.0067 -39.371 83.6127 -0.531433 -20.2358 -2.97026 6.26234 -0.767449 23.4059 0.00468582 1.37673 0.0693196 -6.10291 -10.7255 -25.1905 1.87333 -3.79992 -39.8627 0.0136674 18.2038 0.595423 10.8403 -19.5367 48.0459 
-0.792813 97.7107 47.2156 -8.62988 7.70884 -0.751232 5.01227 -3.94005 5.706 -59.0506 42.9292 -33.0006 27.6184 -28.6842 -65.153 0.00717215 -2.88641 0.406008 6.41309 5.34985 -4.34375 14.6395 42.9825 76.2174 -28.3125 -31.862 69.7724 -0.405255 -17.2913 -2.51745 6.70335 -0.449962 23.1692 0.00437129 1.6309 0.06957 -6.03405 -10.7634 -24.7864 2.3503 -3.34282 -39.4787 0.0101529 18.2001 0.607032 11.0304 -19.7446 48.046 
-0.827282 97.6339 47.5004 -7.88054 7.69553 -1.91952 4.14409 -4.47845 6.91632 -59.8809 42.0099 -32.1207 27.5857 -28.5422 -64.9266 -3.94397e-005 -2.32244 0.326568 6.24445 5.28429 -4.69764 2.48509 48.7988 86.6561 -25.2286 -21.6723 52.8818 -1.36082 -31.7651 -4.96316 5.84373 -0.201443 23.0475 0.00460645 1.43248 0.0697974 -5.72457 -10.6222 -23.7544 1.0675 -2.33204 -40.6719 0.0019838 18.3688 0.716847 12.8124 -20.6932 50.6668 
-0.784011 97.6544 47.5243 -7.82663 7.95401 -2.36761 3.85131 -4.44684 7.57459 -60.4526 41.0765 -31.5168 27.5543 -28.4066 -64.7109 -0.0069337 -1.60747 0.225988 6.2093 3.28864 -5.13376 4.74577 48.9974 85.652 -24.8754 -20.8254 52.9217 -0.95148 -26.823 -4.06461 5.75112 -0.490267 22.9951 0.0046464 1.39522 0.0700201 -5.54909 -10.4523 -23.2915 0.937257 -2.3386 -41.0094 0.00516691 18.333 0.752755 13.4812 -20.9891 51.4866 
